<?xml version="1.0" encoding="utf-8"?>
<!-- Generator: Adobe Illustrator 23.0.2, SVG Export Plug-In . SVG Version: 6.00 Build 0)  -->
<svg version="1.1" id="Слой_1" xmlns="http://www.w3.org/2000/svg" xmlns:xlink="http://www.w3.org/1999/xlink" x="0px" y="0px"
	 viewBox="0 0 45 45" style="enable-background:new 0 0 45 45;" xml:space="preserve">
<style type="text/css">
	.st0{fill:#FFFFFF;}
</style>
<g>
	<path class="st0" d="M27.8,13.2c0-2.9-2.4-5.3-5.3-5.2s-5.3,2.4-5.2,5.3c0,2.9,2.4,5.2,5.3,5.2C25.4,18.5,27.8,16.1,27.8,13.2z
		 M19.1,13.2c0-1.9,1.5-3.4,3.4-3.3c1.9,0,3.4,1.5,3.3,3.4c0,1.8-1.5,3.3-3.4,3.3C20.6,16.6,19.1,15.1,19.1,13.2z"/>
	<path class="st0" d="M4.2,26.5L1.4,42.4c-0.1,0.5,0.3,1,0.8,1.1c0.1,0,0.1,0,0.2,0h40.3c0.5,0,1-0.4,1-0.9c0-0.1,0-0.1,0-0.2
		l-2.9-15.9c-0.1-0.5-0.5-0.8-1-0.8h-9.9l2.5-3.3c1.9-2.5,2.9-5.6,2.7-8.7C34.6,6.9,29,1.5,22.4,1.5S10.2,6.9,9.7,13.7
		c-0.2,3.1,0.8,6.2,2.7,8.7l2.5,3.3H5.2C4.7,25.7,4.3,26.1,4.2,26.5z M11.6,13.8c0.3-5.1,4.5-10.4,10.8-10.4s10.4,5.2,10.8,10.4
		c0.1,2.7-0.7,5.3-2.3,7.4l-8.5,11.3l-8.5-11.3C12.3,19.1,11.5,16.5,11.6,13.8L11.6,13.8z M16.3,27.6l5.3,7.1
		c0.3,0.4,0.9,0.5,1.3,0.2c0.1-0.1,0.1-0.1,0.2-0.2l5.3-7.1H39l2.5,14h-38l2.5-14H16.3z"/>
</g>
</svg>
