<?xml version="1.0" encoding="UTF-8"?>
<svg width="39px" height="40px" viewBox="0 0 39 40" version="1.1" xmlns="http://www.w3.org/2000/svg" xmlns:xlink="http://www.w3.org/1999/xlink">
    <!-- Generator: Sketch 50.2 (55047) - http://www.bohemiancoding.com/sketch -->
    <title>Shape</title>
    <desc>Created with Sketch.</desc>
    <defs></defs>
    <g id="Page-1" stroke="none" stroke-width="1" fill="none" fill-rule="evenodd">
        <g id="Smart-home_Main" transform="translate(-96.000000, -1533.000000)" fill="#FFFFFF" fill-rule="nonzero">
            <g id="elements-new" transform="translate(-8.000000, 1159.000000)">
                <g id="left" transform="translate(67.000000, 213.190349)">
                    <g id="climate-icon-active" transform="translate(0.452830, 135.473672)">
                        <path d="M42.5528302,36.1812804 C43.1173574,36.5016705 43.4971698,37.1005028 43.4971698,37.786368 C43.4971698,38.8097419 42.6515788,39.6393513 41.6084906,39.6393513 C40.5654023,39.6393513 39.7198113,38.8097419 39.7198113,37.786368 C39.7198113,37.1005028 40.0996238,36.5016705 40.6641509,36.1812804 L40.6641509,32.0988792 C40.6641509,31.5871918 41.086946,31.1723875 41.6084906,31.1723875 C42.1300352,31.1723875 42.5528302,31.5871918 42.5528302,32.0988792 L42.5528302,36.1812804 Z M36.8867925,46.124793 C36.8867925,45.6131056 37.3095875,45.1983014 37.8311321,45.1983014 C38.3526767,45.1983014 38.7754717,45.6131056 38.7754717,46.124793 C38.7754717,55.3351626 46.3857867,62.8016432 55.7735849,62.8016432 C65.1613831,62.8016432 72.7716981,55.3351626 72.7716981,46.124793 C72.7716981,36.9144235 65.1613831,29.4479429 55.7735849,29.4479429 C53.5021922,29.4479429 51.2945377,29.8847374 49.2441611,30.7224054 C48.7626923,30.919106 48.2098551,30.6956325 48.0093652,30.2232635 C47.8088744,29.7508945 48.0366529,29.2085059 48.5181216,29.0118052 C50.7975629,28.0805551 53.2518676,27.5949595 55.7735849,27.5949595 C66.2044724,27.5949595 74.6603774,35.8910486 74.6603774,46.124793 C74.6603774,56.3585375 66.2044724,64.6546266 55.7735849,64.6546266 C45.3426975,64.6546266 36.8867925,56.3585375 36.8867925,46.124793 Z M55.7735849,54.4632181 C51.0796853,54.4632181 47.2745283,50.7299783 47.2745283,46.124793 C47.2745283,41.5196078 51.0796853,37.786368 55.7735849,37.786368 C60.4674845,37.786368 64.2726415,41.5196078 64.2726415,46.124793 C64.2726415,50.7299783 60.4674845,54.4632181 55.7735849,54.4632181 Z M64.2726415,39.6393513 C63.2295532,39.6393513 62.3839623,38.8097419 62.3839623,37.786368 C62.3839623,36.762994 63.2295532,35.9333846 64.2726415,35.9333846 C65.3157298,35.9333846 66.1613208,36.762994 66.1613208,37.786368 C66.1613208,38.8097419 65.3157298,39.6393513 64.2726415,39.6393513 Z M55.7735849,52.6102348 C59.4243953,52.6102348 62.3839623,49.7066034 62.3839623,46.124793 C62.3839623,42.5429827 59.4243953,39.6393513 55.7735849,39.6393513 C52.1227745,39.6393513 49.1632075,42.5429827 49.1632075,46.124793 C49.1632075,49.7066034 52.1227745,52.6102348 55.7735849,52.6102348 Z M37.8311321,29.4479429 C37.8311321,27.401194 39.5223131,25.7419762 41.6084906,25.7419762 C43.6946681,25.7419762 45.3858491,27.401194 45.3858491,29.4479429 L45.3858491,35.0064612 C45.9932341,35.7995788 46.3301887,36.7682861 46.3301887,37.786368 C46.3301887,40.3448043 44.2162127,42.4188263 41.6084906,42.4188263 C39.0007685,42.4188263 36.8867925,40.3448043 36.8867925,37.786368 C36.8867925,36.7682861 37.223747,35.7995788 37.8311321,35.0064612 L37.8311321,29.4479429 Z M39.4834799,35.9481242 C39.0295057,36.4527536 38.7754717,37.0989871 38.7754717,37.786368 C38.7754717,39.3214294 40.0438577,40.565843 41.6084906,40.565843 C43.1731234,40.565843 44.4415094,39.3214294 44.4415094,37.786368 C44.4415094,37.0989871 44.1874755,36.4527536 43.7335012,35.9481242 L43.4971698,35.685423 L43.4971698,29.4479429 C43.4971698,28.4245689 42.6515788,27.5949595 41.6084906,27.5949595 C40.5654023,27.5949595 39.7198113,28.4245689 39.7198113,29.4479429 L39.7198113,35.685423 L39.4834799,35.9481242 Z" id="Shape"></path>
                    </g>
                </g>
            </g>
        </g>
    </g>
</svg>