<?xml version="1.0" encoding="utf-8"?>
<!-- Generator: Adobe Illustrator 23.0.2, SVG Export Plug-In . SVG Version: 6.00 Build 0)  -->
<svg version="1.1" id="Слой_1" xmlns="http://www.w3.org/2000/svg" xmlns:xlink="http://www.w3.org/1999/xlink" x="0px" y="0px"
	 viewBox="0 0 45 45" style="enable-background:new 0 0 45 45;" xml:space="preserve">
<style type="text/css">
	.st0{fill-rule:evenodd;clip-rule:evenodd;fill:#FFFFFF;}
</style>
<path class="st0" d="M23.1,6.4c-1.1,0-2.2,0.2-3.1,0.5c-0.9,0.4-1.7,0.9-2.4,1.6c-0.6,0.7-1.1,1.4-1.5,2.3c-0.3,0.9-0.5,1.9-0.5,2.9
	c0,1,0.2,1.9,0.5,2.7c0.3,0.8,0.8,1.5,1.5,2.1c0.7,0.6,1.5,1,2.4,1.4c1,0.3,2,0.5,3.2,0.5c0.8,0,1.5-0.1,2.2-0.2
	c0.7-0.1,1.3-0.4,1.8-0.6c0.5-0.3,1-0.6,1.4-1c0.4-0.4,0.7-0.9,1-1.4h-1.6c-0.4,0.5-0.9,1-1.6,1.3c-0.6,0.3-1.4,0.5-2.3,0.6
	c-1.1,0.1-2.1,0.1-3-0.1c-0.9-0.2-1.6-0.5-2.3-1c-0.6-0.5-1.1-1-1.5-1.7c-0.3-0.7-0.5-1.4-0.5-2.3c0-0.6,0.1-1.2,0.2-1.8
	c0.2-0.6,0.4-1.2,0.7-1.6c0.3-0.6,0.7-1,1.2-1.4c0.5-0.4,1.1-0.7,1.7-0.9c0.7-0.2,1.4-0.3,2.2-0.3c0.8,0,1.5,0.1,2.1,0.3
	c0.6,0.2,1.1,0.5,1.5,0.9c0.4,0.4,0.7,0.8,0.9,1.3c0.2,0.5,0.3,1.1,0.3,1.6c0,0.7-0.2,1.3-0.5,1.9c-0.3,0.6-0.7,1.1-1.1,1.4
	c-0.4,0.3-0.8,0.5-1,0.5c-0.1,0-0.1,0-0.2-0.1c-0.1-0.1-0.1-0.1-0.1-0.3c0-0.1,0-0.3,0.1-0.7l1.1-5.2h-1.9l-0.2,0.8
	c-0.4-0.7-1-1-1.9-1c-0.8,0-1.4,0.2-2,0.7c-0.6,0.5-1.1,1.1-1.4,1.8c-0.3,0.7-0.5,1.5-0.5,2.2c0,0.7,0.1,1.3,0.5,1.8
	c0.3,0.5,0.7,0.9,1.2,1.1c0.5,0.2,1,0.3,1.6,0.1c0.5-0.1,1-0.4,1.5-0.8c0.1,0.3,0.2,0.5,0.4,0.6c0.2,0.1,0.5,0.2,0.9,0.2
	c0.7,0,1.3-0.1,1.9-0.4c0.6-0.3,1.1-0.7,1.5-1.2c0.4-0.5,0.8-1,1-1.7c0.2-0.6,0.4-1.3,0.4-1.9c0-0.8-0.1-1.6-0.4-2.3
	C28.6,9,28.1,8.5,27.6,8c-0.5-0.5-1.2-0.9-2-1.2C24.9,6.5,24,6.4,23.1,6.4z M7.7,10c-3.6,0-6.5,3-6.5,6.5v15.8
	c0,3.8,3.4,6.3,6.9,6.3h29.6c3.5,0,6.1-2.5,6.1-6.3V16.5c0-3.7-2.8-6.5-6.3-6.5c-0.6,0-1.1,0.5-1.1,1c0,0.6,0.5,1,1.1,1
	c1.4,0,2.7,0.7,3.4,1.8l-15.8,10c-1.4,0.8-3,0.8-4.4,0L4.3,13.7c0.8-1,2.1-1.6,3.5-1.6c0.6,0,0.9-0.5,0.9-1C8.7,10.5,8.3,10,7.7,10z
	 M22.5,10.7c0.2,0,0.4,0,0.6,0.1c0.2,0.1,0.3,0.2,0.4,0.3c0.1,0.2,0.2,0.3,0.3,0.5c0.1,0.2,0.1,0.4,0.1,0.7c0,0.5-0.1,1.1-0.3,1.6
	c-0.2,0.6-0.4,1-0.8,1.4c-0.3,0.4-0.7,0.5-1.2,0.5c-0.4,0-0.7-0.2-0.9-0.5c-0.2-0.3-0.4-0.8-0.4-1.4c0-0.6,0.1-1.1,0.3-1.6
	c0.2-0.5,0.5-1,0.8-1.3C21.7,10.8,22.1,10.7,22.5,10.7z M3.4,15.5l16.3,10.2c1,0.5,2.1,0.8,3.2,0.8c1.1,0,2.3-0.3,3.3-0.9l15.6-9.9
	c0,0.3,0.1,0.5,0.1,0.8v15.8c0,2.6-1.7,4.2-4.1,4.2H8.1c-2.4,0-4.8-1.7-4.8-4.2V16.5C3.2,16.2,3.3,15.8,3.4,15.5z"/>
</svg>
