<svg xmlns="http://www.w3.org/2000/svg" width="41" height="41" viewBox="0 0 41 41">
    <g fill="#FFF" fill-rule="nonzero">
        <path d="M20.454 1.694c10.41 0 18.824 8.399 18.824 18.797 0 9.855-7.588 17.947-17.22 18.727-.533.097-1.073.097-1.604.097-1.41 0-2.778-.14-4.087-.439C7.902 36.991 1.576 29.46 1.576 20.491 1.575 10.093 10.044 1.694 20.454 1.694zm0-.965C9.51.73.604 9.602.604 20.491c0 9.17 6.54 17.306 15.548 19.332 1.36.298 2.806.447 4.302.447.586 0 1.186 0 1.77-.092 10.063-.811 18.024-9.456 18.024-19.687C40.248 9.602 31.365.729 20.454.729z"/>
        <path d="M22.592 17.02c.29-.341.875-.586 1.704-.586.775 0 1.7.114 2.577.359l.732-3.945c-1.506-.526-3.063-.676-4.67-.676-1.608 0-2.875.246-3.892.833-1.024.561-1.706 1.201-2.092 2.13-.39.834-.585 2.227-.585 3.981v1.552h-3.118v4.506h3.118v14.177c1.31.298 2.677.439 4.087.439.53 0 1.07 0 1.604-.097V25.174h4.133v-4.506h-4.133v-1.455c0-1.114.147-1.798.535-2.192z"/>
    </g>
</svg>
