<svg xmlns="http://www.w3.org/2000/svg" width="36" height="36" viewBox="0 0 36 36">
    <g fill="#FFF" fill-rule="nonzero">
        <path d="M29.065.212H6.935C3.23.212.212 3.229.212 6.935v22.183c0 3.706 3.017 6.723 6.723 6.723h22.183c3.706 0 6.723-3.017 6.723-6.723V6.935C35.788 3.23 32.771.212 29.065.212zM6.935 1.694h22.183c2.858 0 5.24 2.33 5.24 5.241v6.618h-7.41v.212c-1.96-2.806-5.242-4.66-8.895-4.66-3.653 0-6.882 1.8-8.894 4.607v-.16H1.747V6.936c-.053-2.911 2.277-5.24 5.188-5.24zM18 10.588a9.354 9.354 0 0 1 9.37 9.37A9.354 9.354 0 0 1 18 29.33a9.354 9.354 0 0 1-9.37-9.37 9.354 9.354 0 0 1 9.37-9.37zm11.065 23.718H6.935c-2.859 0-5.24-2.33-5.24-5.241V14.982h6.617c-.741 1.483-1.218 3.177-1.218 4.924 0 5.982 4.87 10.853 10.853 10.853 5.982 0 10.906-4.818 10.906-10.8 0-1.8-.424-3.441-1.218-4.924h6.618v14.083c.053 2.858-2.277 5.188-5.188 5.188z"/>
        <path d="M18 27.106c3.759 0 6.776-3.07 6.776-6.777 0-3.705-3.017-6.829-6.776-6.829s-6.776 3.07-6.776 6.776 3.017 6.83 6.776 6.83zm0-12.124c2.912 0 5.294 2.383 5.294 5.294 0 2.912-2.382 5.295-5.294 5.295-2.912 0-5.294-2.383-5.294-5.295 0-2.911 2.382-5.294 5.294-5.294zM26.47 10.747h3.336c1.059 0 1.959-.9 1.959-1.959V5.453c0-1.059-.9-1.959-1.96-1.959h-3.334c-1.06 0-1.96.9-1.96 1.959v3.335c0 1.06.9 1.96 1.96 1.96zm-.952-5.294c0-.53.423-.953.953-.953h3.335c.53 0 .953.424.953.953v3.335c0 .53-.424.953-.953.953H26.47a.949.949 0 0 1-.953-.953V5.453z"/>
    </g>
</svg>
