<?xml version="1.0" encoding="UTF-8"?>
<svg width="28px" height="42px" viewBox="0 0 28 42" version="1.1" xmlns="http://www.w3.org/2000/svg" xmlns:xlink="http://www.w3.org/1999/xlink">
    <!-- Generator: Sketch 50.2 (55047) - http://www.bohemiancoding.com/sketch -->
    <title>icon</title>
    <desc>Created with Sketch.</desc>
    <defs></defs>
    <g id="Page-1" stroke="none" stroke-width="1" fill="none" fill-rule="evenodd">
        <g id="Smart-home_Main" transform="translate(-100.000000, -1389.000000)">
            <g id="elements-new" transform="translate(-8.000000, 1159.000000)">
                <g id="left" transform="translate(67.000000, 213.190349)">
                    <g id="light-icon-active" transform="translate(18.000000, 0.000000)">
                        <g id="icon" transform="translate(23.698113, 17.734827)">
                            <path d="M19.3071859,16.7580612 C19.140265,16.5899201 18.8064231,16.5899201 18.6395022,16.7580612 L13.3536732,22.2506699 L7.84528302,16.8141082 C7.6783621,16.6459671 7.34452027,16.6459671 7.17759936,16.8141082 C7.01067844,16.9822493 7.01067844,17.3185314 7.17759936,17.4866725 L12.7972702,23.0913753 L12.7972702,30.5456299 C12.7972702,30.825865 13.0754717,31.0500531 13.3536732,31.0500531 C13.6318747,31.0500531 13.9100763,30.825865 13.9100763,30.5456299 L13.9100763,23.0913753 L19.4184665,17.4306255 C19.5853874,17.2624844 19.4741068,16.9822493 19.3071859,16.7580612 Z" id="Shape" fill="#000000" fill-rule="nonzero"></path>
                            <path d="M13.2423926,0 C6.17607387,0 0.445122441,5.77284382 0.445122441,12.8908163 C0.445122441,16.9262023 4.78506624,24.548598 6.67683661,27.6311845 C7.12195905,28.3037488 7.23323966,29.0884072 7.23323966,29.9291126 L7.23323966,32.3951818 C7.23323966,34.1886867 8.17912485,35.6459094 9.57013248,36.5426618 C9.73705339,38.4482608 11.2949819,39.9615305 13.1867523,39.9615305 C15.0785227,39.9615305 16.5808109,38.4482608 16.6920915,36.5426618 C18.0830992,35.6459094 18.9177037,34.1886867 18.9177037,32.3951818 L18.9177037,29.9291126 C18.9177037,29.1444542 19.1959053,28.3597958 19.6410277,27.6311845 C21.5327981,24.548598 25.9840225,16.9262023 25.9840225,12.8908163 C25.9840225,5.77284382 20.3087114,0 13.2423926,0 Z M18.6951425,27.0707142 C18.1387395,27.9114196 17.8048976,28.9202661 17.8048976,29.9291126 L17.8048976,32.3951818 C17.8048976,35.1975332 15.4123645,36.4305678 13.0754717,36.4305678 C10.7385789,36.4305678 8.34604576,35.1975332 8.34604576,32.3951818 L8.34604576,29.9291126 C8.34604576,28.9202661 8.17912485,27.9114196 7.6227218,27.0707142 C6.17607387,24.7167391 1.50228824,16.7580612 1.50228824,12.8908163 C1.50228824,6.38936112 6.78811722,1.12094055 13.1867523,1.12094055 C19.6410277,1.12094055 24.8712164,6.38936112 24.8712164,12.8908163 C24.8712164,16.7580612 20.1417904,24.7167391 18.6951425,27.0707142 Z" id="Shape" stroke="#000000" stroke-width="1.437696" fill="#000000" fill-rule="nonzero"></path>
                            <path d="M13.2423926,38.896637 C12.1852268,38.896637 11.2949819,38.1680256 10.9054998,37.2152262 C11.6288238,37.4394143 12.3521477,37.6075553 13.2423926,37.6075553 C14.0769972,37.6075553 14.8559615,37.4954613 15.5792854,37.2152262 C15.1898033,38.1680256 14.2995584,38.896637 13.2423926,38.896637 Z" id="Path" fill="#FFFFFF"></path>
                        </g>
                    </g>
                </g>
            </g>
        </g>
    </g>
</svg>