<?xml version="1.0" encoding="UTF-8"?>
<svg width="40px" height="40px" viewBox="0 0 40 40" version="1.1" xmlns="http://www.w3.org/2000/svg" xmlns:xlink="http://www.w3.org/1999/xlink">
    <!-- Generator: Sketch 50.2 (55047) - http://www.bohemiancoding.com/sketch -->
    <title>icon</title>
    <desc>Created with Sketch.</desc>
    <defs></defs>
    <g id="Page-1" stroke="none" stroke-width="1" fill="none" fill-rule="evenodd">
        <g id="Smart-home_Main" transform="translate(-93.000000, -2108.000000)" fill="#000000" fill-rule="nonzero">
            <g id="elements-new" transform="translate(-8.000000, 1159.000000)">
                <g id="left" transform="translate(67.000000, 213.190349)">
                    <g id="mechanism-icon" transform="translate(18.452830, 717.764893)">
                        <g id="icon" transform="translate(15.981132, 18.735721)">
                            <path d="M32.1656604,0 C31.2242264,0 30.3142963,0.186537502 29.4670057,0.528968857 L29.435747,0.528968857 L3.51444171,11.8914628 C3.51444171,11.8914628 3.48318296,11.8919491 3.48318296,11.9230792 C1.4434095,12.7013322 0,14.6622867 0,16.9659156 C0,18.3356409 0.502343294,19.5498373 1.34963383,20.514871 C1.38101496,20.5460011 1.38076981,20.5768878 1.41215094,20.5768878 L15.2198491,34.9903767 C15.4081358,35.1771574 15.5647964,35.3635739 15.7530832,35.5503546 L15.8787301,35.6749965 L15.9731189,35.7686297 C18.0756548,37.7298272 20.899834,38.9126504 24.006566,38.9126504 C29.6865509,38.9126504 34.4567278,34.8969863 35.5550674,29.5426059 L35.5550674,29.5115972 L35.5863262,29.3869553 C35.6177073,29.2313047 35.6487213,29.0446454 35.6801024,28.8889948 L39.0695094,8.40513249 C39.1636528,7.93818068 39.2264151,7.47122888 39.2264151,7.00427707 C39.2264151,3.14414215 36.0569208,0 32.1656604,0 Z M32.1656604,1.55650602 C35.1782491,1.55650602 37.6573585,4.01578552 37.6573585,7.00427707 C37.6573585,9.99276863 35.1782491,12.4520481 32.1656604,12.4520481 C29.1530717,12.4520481 26.6739623,9.99276863 26.6739623,7.00427707 C26.6739623,4.01578552 29.1530717,1.55650602 32.1656604,1.55650602 Z M25.889434,3.76662284 C25.3873358,4.73165657 25.1049057,5.82145422 25.1049057,6.97326867 C25.1049057,10.8334036 28.2744,13.9775457 32.1656604,13.9775457 C33.9543849,13.9775457 35.6177073,13.2923183 36.8415714,12.202764 L35.021221,23.0983062 C33.358021,18.7089592 29.0589283,15.5650602 24.006566,15.5650602 C17.5106717,15.5650602 12.2386415,20.7949204 12.2386415,27.2388553 C12.2386415,28.1727589 12.364166,29.1069056 12.5524528,29.978549 L5.30353402,22.4136866 L5.49169811,22.4136866 C8.50428679,22.4136866 10.9833962,19.9544071 10.9833962,16.9659156 C10.9833962,14.6311566 9.50823793,12.6387071 7.43708322,11.8604541 L25.889434,3.76662284 Z M32.1656604,4.66951805 C30.879034,4.66951805 29.8120755,5.72794214 29.8120755,7.00427707 C29.8120755,8.28061201 30.879034,9.3390361 32.1656604,9.3390361 C33.4522868,9.3390361 34.5192453,8.28061201 34.5192453,7.00427707 C34.5192453,5.72794214 33.4522868,4.66951805 32.1656604,4.66951805 Z M32.1656604,6.22602407 C32.6049962,6.22602407 32.9501887,6.56845539 32.9501887,7.00427707 C32.9501887,7.44009876 32.6049962,7.78253008 32.1656604,7.78253008 C31.7263245,7.78253008 31.3811321,7.44009876 31.3811321,7.00427707 C31.3811321,6.56845539 31.7263245,6.22602407 32.1656604,6.22602407 Z M5.49169811,13.0746505 C7.65699623,13.0746505 9.41433962,14.8179373 9.41433962,16.9659156 C9.41433962,19.1138939 7.65699623,20.8571806 5.49169811,20.8571806 C4.42473962,20.8571806 3.45167944,20.4214807 2.7299134,19.736618 L2.69865466,19.7056093 C2.00826988,18.9896165 1.5690566,18.0553481 1.5690566,16.996924 C1.5690566,14.8178156 3.3264,13.0746505 5.49169811,13.0746505 Z M5.49169811,15.7207108 C4.80131321,15.7207108 4.23645283,16.2810529 4.23645283,16.9659156 C4.23645283,17.6507782 4.80131321,18.2111204 5.49169811,18.2111204 C6.18208302,18.2111204 6.7469434,17.6507782 6.7469434,16.9659156 C6.7469434,16.2810529 6.18208302,15.7207108 5.49169811,15.7207108 Z M5.49169811,16.6546144 C5.67998491,16.6546144 5.80550943,16.7791349 5.80550943,16.9659156 C5.80550943,17.1526963 5.67998491,17.2772168 5.49169811,17.2772168 C5.30341132,17.2772168 5.17788679,17.1526963 5.17788679,16.9659156 C5.17788679,16.7791349 5.30341132,16.6546144 5.49169811,16.6546144 Z M23.9753076,17.1215662 C29.5925302,17.1215662 34.1741752,21.6665638 34.1741752,27.2388553 C34.1741752,27.7058071 34.1425493,28.2037673 34.079787,28.6707191 L33.9860108,29.1376709 C33.1387202,33.8071893 28.9647849,37.3561444 24.006566,37.3561444 C21.2450264,37.3561444 18.7347809,36.266833 16.8832941,34.4924161 L16.3494471,33.9318312 C14.7490094,32.1574143 13.7764397,29.7915252 13.7764397,27.2388553 C13.7764397,21.6665638 18.358085,17.1215662 23.9753076,17.1215662 Z M24.006566,20.2345782 C23.5672302,20.2345782 23.2220377,20.5770095 23.2220377,21.0128312 L23.2220377,23.4412237 C22.7199396,23.5346141 22.2490999,23.7521601 21.8411452,24.0012011 L20.115183,22.2890444 C19.8013716,21.9777432 19.2992735,21.9777432 19.0168433,22.2890444 C18.703032,22.6003456 18.703032,23.0984276 19.0168433,23.3785987 L20.7428056,25.0907553 C20.4603754,25.4954468 20.2724564,25.9625204 20.178313,26.4606023 L17.7303396,26.4606023 C17.2910038,26.4606023 16.9458113,26.8030336 16.9458113,27.2388553 C16.9458113,27.674677 17.2910038,28.0171083 17.7303396,28.0171083 L20.178313,28.0171083 C20.2724564,28.5151902 20.4917565,28.9822637 20.7428056,29.3869553 L19.0168433,31.0991116 C18.703032,31.4104128 18.703032,31.9084947 19.0168433,32.1886658 C19.173749,32.3443164 19.3622812,32.4063339 19.5819491,32.4063339 C19.801617,32.4063339 19.989536,32.3443164 20.1464417,32.1886658 L21.872404,30.4765095 C22.2803587,30.7566803 22.7511981,30.9430968 23.2532962,31.0364872 L23.2532962,33.4648794 C23.2532962,33.900701 23.5984886,34.2431324 24.0378245,34.2431324 C24.4771603,34.2431324 24.8223528,33.900701 24.8223528,33.4648794 L24.8223528,31.0364872 C25.3244509,30.9430968 25.7952906,30.7255502 26.2032453,30.4765095 L27.9292075,32.1886658 C28.0861132,32.3443164 28.2746451,32.4063339 28.494313,32.4063339 C28.7139809,32.4063339 28.9018999,32.3443164 29.0588056,32.1886658 C29.3726169,31.8773646 29.3726169,31.3792827 29.0588056,31.0991116 L27.3328433,29.3869553 C27.6152735,28.9822637 27.8038057,28.5151902 27.8979491,28.0171083 L30.2827925,28.0171083 C30.7221283,28.0171083 31.0673208,27.674677 31.0673208,27.2388553 C31.0673208,26.8030336 30.7221283,26.4606023 30.2827925,26.4606023 L27.8348191,26.4606023 C27.7406757,25.9625204 27.5213755,25.4954468 27.2703265,25.0907553 L28.9962887,23.3785987 C29.3101001,23.0672974 29.3101001,22.5692155 28.9962887,22.2890444 C28.6824774,21.9777432 28.1803793,21.9777432 27.8979491,22.2890444 L26.1719869,24.0012011 C25.7640321,23.72103 25.2931925,23.5346141 24.7910943,23.4412237 L24.7910943,21.0128312 C24.7910943,20.5770095 24.4459019,20.2345782 24.006566,20.2345782 Z M24.006566,24.9040963 C25.2931925,24.9040963 26.3601509,25.9625204 26.3601509,27.2388553 C26.3601509,28.5151902 25.2931925,29.5736143 24.006566,29.5736143 C22.7199396,29.5736143 21.6529811,28.5151902 21.6529811,27.2388553 C21.6529811,25.9625204 22.7199396,24.9040963 24.006566,24.9040963 Z" id="Shape"></path>
                        </g>
                    </g>
                </g>
            </g>
        </g>
    </g>
</svg>