<?xml version="1.0" encoding="UTF-8"?>
<svg width="40px" height="37px" viewBox="0 0 40 37" version="1.1" xmlns="http://www.w3.org/2000/svg" xmlns:xlink="http://www.w3.org/1999/xlink">
    <!-- Generator: Sketch 50.2 (55047) - http://www.bohemiancoding.com/sketch -->
    <title>icon</title>
    <desc>Created with Sketch.</desc>
    <defs></defs>
    <g id="Page-1" stroke="none" stroke-width="1" fill="none" fill-rule="evenodd">
        <g id="Smart-home_Main" transform="translate(-95.000000, -1827.000000)" fill="#000000" fill-rule="nonzero">
            <g id="elements-new" transform="translate(-8.000000, 1159.000000)">
                <g id="left" transform="translate(67.000000, 213.190349)">
                    <g id="multimedia-icon" transform="translate(18.452830, 432.564513)">
                        <g id="icon" transform="translate(18.886792, 23.059348)">
                            <path d="M35.5701258,0.393057075 L2.20345912,0.393057075 C1.02303459,0.393057075 0,1.33639405 0,2.59417669 L0,24.6839843 C0,25.9417669 1.02303459,26.8851039 2.20345912,26.8851039 L35.5701258,26.8851039 C36.8292453,26.8851039 37.7735849,25.8631555 37.7735849,24.6839843 L37.7735849,2.59417669 C37.7735849,1.33639405 36.7505503,0.393057075 35.5701258,0.393057075 Z M36.1996855,24.6053729 C36.1996855,24.9198185 35.8849057,25.2342642 35.5701258,25.2342642 L2.20345912,25.2342642 C1.88867925,25.2342642 1.57389937,24.9198185 1.57389937,24.6053729 L1.57389937,2.59417669 C1.57389937,2.27973103 1.88867925,1.96528537 2.20345912,1.96528537 L35.5701258,1.96528537 C35.8849057,1.96528537 36.1996855,2.27973103 36.1996855,2.59417669 L36.1996855,24.6053729 Z" id="Shape" stroke="#000000" stroke-width="0.72"></path>
                            <path d="M36.9866352,31.6279926 L10.9386006,31.6279926 C10.5451258,30.2915986 9.36470126,29.2696502 7.86949686,29.2696502 C6.37429245,29.2696502 5.19386792,30.2915986 4.80039308,31.6279926 L0.786949686,31.6279926 C0.314779874,31.6279926 0,31.9424383 0,32.4141068 C0,32.8857753 0.314779874,33.2002209 0.786949686,33.2002209 L4.80039308,33.2002209 C5.11517296,34.6152264 6.37429245,35.6371748 7.86949686,35.6371748 C9.36470126,35.6371748 10.6238208,34.6152264 10.9386006,33.2002209 L36.9866352,33.2002209 C37.458805,33.2002209 37.7735849,32.8857753 37.7735849,32.4141068 C37.7735849,31.9424383 37.458805,31.6279926 36.9866352,31.6279926 Z M7.86949686,34.0649465 C7.0038522,34.0649465 6.29559748,33.3574438 6.29559748,32.4927182 C6.29559748,31.6279926 7.0038522,30.9204899 7.86949686,30.9204899 C8.73514151,30.9204899 9.36470126,31.5493812 9.44339623,32.3354954 C9.44339623,32.3354954 9.44339623,32.4141068 9.44339623,32.4141068 C9.44339623,32.4927182 9.44339623,32.4927182 9.44339623,32.5713296 C9.44339623,33.4360552 8.73514151,34.0649465 7.86949686,34.0649465 Z" id="Shape"></path>
                            <path d="M22.585456,11.4772666 L17.8637579,8.49003282 C16.2111635,7.46808442 14.0077044,8.64725565 14.0077044,10.612541 L14.0077044,16.5870086 C14.0077044,18.5522939 16.2111635,19.7314652 17.8637579,18.7095168 L22.585456,15.722283 C23.2937107,15.2506145 23.7658805,14.4645004 23.7658805,13.5997748 C23.7658805,12.7350492 23.2937107,11.9489351 22.585456,11.4772666 Z M21.7198113,14.3858889 L16.9981132,17.3731227 C16.3685535,17.7661798 15.5816038,17.2945113 15.5816038,16.5870086 L15.5816038,10.612541 C15.5816038,9.90503829 16.3685535,9.4333698 16.9981132,9.82642687 L21.7198113,12.8136606 C21.9558962,12.9708835 22.1132862,13.2853291 22.1132862,13.5997748 C22.1132862,13.9142205 22.0345912,14.2286661 21.7198113,14.3858889 Z" id="Shape"></path>
                        </g>
                    </g>
                </g>
            </g>
        </g>
    </g>
</svg>