<?xml version="1.0" encoding="utf-8"?>
<!-- Generator: Adobe Illustrator 23.0.2, SVG Export Plug-In . SVG Version: 6.00 Build 0)  -->
<svg version="1.1" id="Слой_1" xmlns="http://www.w3.org/2000/svg" xmlns:xlink="http://www.w3.org/1999/xlink" x="0px" y="0px"
	 viewBox="0 0 45 45" style="enable-background:new 0 0 45 45;" xml:space="preserve">
<g>
	<path d="M35,32.6l-5.6-4.3c-1-0.8-2.5-0.8-3.5-0.1l-3.3,2.2c-0.5,0.3-1,0.2-1.3-0.1l0,0c-2.9-2.8-6.8-7.9-7.9-13
		c-0.1-0.5,0.1-0.8,0.5-1.1l3.7-2.3c1-0.6,1.5-1.8,1.4-3l-1.2-6.7c-0.3-1.4-1.4-2.4-2.9-2.4H8.4C7,1.8,5.7,2.9,5.5,4.4
		c-1.4,8.9,0.3,17.4,5,24.6c4.3,6.7,11,11.7,18.7,14.1c0.3,0.1,0.6,0.1,0.8,0.1c1,0,2-0.5,2.5-1.4l3.2-5.2
		C36.5,35.2,36.2,33.5,35,32.6z M34.1,35.5l-3.2,5.2c-0.2,0.4-0.7,0.5-1.2,0.4c-7.2-2.3-13.5-7-17.6-13.2c-4.4-6.8-6-14.8-4.6-23.2
		c0.1-0.5,0.5-0.8,1-0.8h6.5c0.5,0,0.9,0.3,1,0.8l1.2,6.6c0.1,0.4-0.1,0.8-0.5,1l-3.7,2.3c-1.1,0.6-1.7,1.9-1.4,3.2
		c1.3,5.6,5.2,10.8,8.5,14c1,0.9,2.5,1.1,3.7,0.4l3.4-2.3c0.3-0.3,0.8-0.3,1.2,0.1l5.6,4.3C34.3,34.4,34.3,35.1,34.1,35.5z"/>
	<path d="M23.4,12.1c4.3,3.4,7.4,8.3,8.7,13.7c0.1,0.5,0.5,0.8,1,0.8c0.1,0,0.1,0,0.2,0c0.5-0.1,0.8-0.6,0.7-1.2
		c-1.3-5.9-4.6-11.2-9.3-14.8c-0.5-0.3-1-0.3-1.4,0.2C22.9,11.1,23,11.8,23.4,12.1z"/>
	<path d="M39.9,26.1c-1.5-9.4-7-17.6-15.2-22.5c-0.5-0.3-1.1-0.1-1.4,0.3c-0.3,0.5-0.1,1,0.3,1.4c7.7,4.6,12.9,12.3,14.3,21
		c0.1,0.5,0.5,0.8,1,0.8c0.1,0,0.1,0,0.1,0C39.6,27.1,40,26.6,39.9,26.1z"/>
</g>
</svg>
