<svg xmlns="http://www.w3.org/2000/svg" width="44" height="44" viewBox="0 0 44 44">
    <defs>
        <filter id="a" width="176.7%" height="176.7%" x="-38.3%" y="-31.7%" filterUnits="objectBoundingBox">
            <feOffset dy="2" in="SourceAlpha" result="shadowOffsetOuter1"/>
            <feGaussianBlur in="shadowOffsetOuter1" result="shadowBlurOuter1" stdDeviation="3.5"/>
            <feColorMatrix in="shadowBlurOuter1" result="shadowMatrixOuter1" values="0 0 0 0 1 0 0 0 0 0.435294118 0 0 0 0 0.380392157 0 0 0 0.335767663 0"/>
            <feMerge>
                <feMergeNode in="shadowMatrixOuter1"/>
                <feMergeNode in="SourceGraphic"/>
            </feMerge>
        </filter>
    </defs>
    <g fill="none" fill-rule="evenodd" filter="url(#a)" transform="translate(7 5)">
        <circle cx="15" cy="15" r="15" fill="#FF6F61"/>
        <g fill="#FFF" fill-rule="nonzero">
            <path d="M20.535 20.123l-2.373-1.815a1.236 1.236 0 0 0-1.472-.054l-1.391.92a.45.45 0 0 1-.546-.053c-1.227-1.165-2.863-3.305-3.354-5.445-.055-.19.027-.353.19-.46l1.583-.95c.436-.27.654-.758.572-1.245l-.49-2.818c-.11-.596-.6-1.002-1.228-1.002H9.3c-.627 0-1.146.46-1.227 1.057-.6 3.738.136 7.314 2.1 10.32 1.827 2.818 4.636 4.904 7.881 5.907a1.25 1.25 0 0 0 1.418-.515l1.364-2.194c.327-.57.191-1.274-.3-1.653zm-.409 1.192l-1.364 2.194c-.081.163-.3.217-.49.163-3.055-.948-5.7-2.926-7.419-5.554C9 15.274 8.317 11.915 8.89 8.366a.412.412 0 0 1 .409-.352h2.727c.218 0 .382.135.41.352l.49 2.79c.027.163-.054.325-.19.434l-1.583.948c-.463.27-.709.785-.572 1.327.545 2.33 2.209 4.551 3.6 5.879.409.38 1.036.46 1.554.162l1.418-.948a.377.377 0 0 1 .491.027l2.373 1.815c.19.082.218.353.11.515zM15.626 11.508a10.223 10.223 0 0 1 3.655 5.744c.054.19.218.325.409.325h.082a.404.404 0 0 0 .3-.488 11.01 11.01 0 0 0-3.928-6.23c-.19-.136-.436-.11-.572.08a.373.373 0 0 0 .054.57zM22.608 17.387c-.627-3.955-2.946-7.396-6.41-9.427-.19-.109-.463-.055-.572.135a.432.432 0 0 0 .136.569c3.246 1.923 5.455 5.147 6.028 8.831.027.19.218.352.409.352h.054a.421.421 0 0 0 .355-.46z"/>
        </g>
    </g>
</svg>
