<?xml version="1.0" encoding="UTF-8"?>
<svg width="29px" height="46px" viewBox="0 0 29 46" version="1.1" xmlns="http://www.w3.org/2000/svg" xmlns:xlink="http://www.w3.org/1999/xlink">
    <!-- Generator: Sketch 50.2 (55047) - http://www.bohemiancoding.com/sketch -->
    <title>icon</title>
    <desc>Created with Sketch.</desc>
    <defs></defs>
    <g id="Page-1" stroke="none" stroke-width="1" fill="none" fill-rule="evenodd">
        <g id="Smart-home_Main" transform="translate(-100.000000, -1675.000000)" fill="#000000" fill-rule="nonzero">
            <g id="elements-new" transform="translate(-8.000000, 1159.000000)">
                <g id="left" transform="translate(67.000000, 213.190349)">
                    <g id="security-icon" transform="translate(18.452830, 288.523114)">
                        <g id="icon" transform="translate(23.000000, 15.000000)">
                            <path d="M0.980701781,16.5738601 L5.29578962,16.5738601 L5.29578962,8.82631603 C5.29578962,4.0208773 9.21859674,0 14.1221056,0 C18.9275444,0 22.9484217,4.0208773 22.9484217,8.82631603 L22.9484217,16.5738601 L27.1654393,16.5738601 C27.7538604,16.5738601 28.1461411,17.064211 28.1461411,17.6526321 L28.1461411,30.6959658 C28.1461411,38.4435098 21.8696497,44.7200012 14.0240355,44.7200012 C6.37456158,44.7200012 0,38.4435098 0,30.6959658 L0,17.5545619 C0,17.064211 0.490350891,16.5738601 0.980701781,16.5738601 Z M7.159123,16.5738601 L21.0850883,16.5738601 L21.0850883,8.82631603 C21.0850883,5.00157908 17.9468426,1.86333338 14.1221056,1.86333338 C10.2973687,1.86333338 7.159123,5.00157908 7.159123,8.82631603 L7.159123,16.5738601 Z M1.96140356,21.7715795 L18.731404,21.7715795 C20.0063163,21.7715795 20.0063163,23.7329831 18.731404,23.7329831 L1.96140356,23.7329831 L1.96140356,30.6959658 C1.96140356,37.3647379 7.45333354,42.7585977 14.1221056,42.7585977 C20.7908778,42.7585977 26.1847376,37.3647379 26.1847376,30.6959658 L26.1847376,18.5352637 L1.96140356,18.5352637 L1.96140356,21.7715795 Z" id="Shape"></path>
                            <path d="M14.1221056,26.2828077 C16.0835092,26.2828077 17.7507022,27.9500008 17.7507022,29.9114043 C17.7507022,31.9708781 16.0835092,33.6380711 14.1221056,33.6380711 C12.0626319,33.6380711 10.3954389,31.9708781 10.3954389,29.9114043 C10.3954389,27.9500008 12.0626319,26.2828077 14.1221056,26.2828077 Z M14.1221056,28.2442113 C13.1414039,28.2442113 12.3568424,29.0287727 12.3568424,29.9114043 C12.3568424,30.8921061 13.1414039,31.6766675 14.1221056,31.6766675 C15.0047373,31.6766675 15.7892987,30.8921061 15.7892987,29.9114043 C15.7892987,29.0287727 15.0047373,28.2442113 14.1221056,28.2442113 Z" id="Shape"></path>
                            <path d="M13.1414039,32.8535097 C13.1414039,32.2650886 13.5336846,31.8728079 14.1221056,31.8728079 C14.6124565,31.8728079 15.1028074,32.2650886 15.1028074,32.8535097 L15.1028074,35.1091238 C15.1028074,36.4821063 13.1414039,36.4821063 13.1414039,35.1091238 L13.1414039,32.8535097 Z" id="Shape"></path>
                            <path d="M21.7715795,23.7329831 C20.4966672,23.7329831 20.4966672,21.7715795 21.7715795,21.7715795 L23.6349129,21.7715795 C24.9098252,21.7715795 24.9098252,23.7329831 23.6349129,23.7329831 L21.7715795,23.7329831 Z" id="Shape"></path>
                        </g>
                    </g>
                </g>
            </g>
        </g>
    </g>
</svg>