<?xml version="1.0" encoding="utf-8"?>
<!-- Generator: Adobe Illustrator 23.0.2, SVG Export Plug-In . SVG Version: 6.00 Build 0)  -->
<svg version="1.1" id="Слой_1" xmlns="http://www.w3.org/2000/svg" xmlns:xlink="http://www.w3.org/1999/xlink" x="0px" y="0px"
	 viewBox="0 0 45 45" style="enable-background:new 0 0 45 45;" xml:space="preserve">
<style type="text/css">
	.st0{stroke:#000000;}
</style>
<path class="st0" d="M14.5,35.4c0.2-0.2,0.2-0.5,0-0.7L4,22.9h38c0.2,0,0.5-0.2,0.5-0.5c0-0.3-0.2-0.5-0.5-0.5H4l10.5-11.6
	c0.1-0.2,0.1-0.5,0-0.6c-0.2-0.2-0.5-0.2-0.7,0L2.6,22.2c-0.2,0.2-0.2,0.4,0,0.6l11.2,12.5c0.1,0.1,0.2,0.1,0.3,0.2
	C14.2,35.5,14.4,35.5,14.5,35.4z"/>
</svg>
