<?xml version="1.0" encoding="utf-8"?>
<!-- Generator: Adobe Illustrator 23.0.2, SVG Export Plug-In . SVG Version: 6.00 Build 0)  -->
<svg version="1.1" id="Слой_1" xmlns="http://www.w3.org/2000/svg" xmlns:xlink="http://www.w3.org/1999/xlink" x="0px" y="0px"
	 viewBox="0 0 45 45" style="enable-background:new 0 0 45 45;" xml:space="preserve">
<style type="text/css">
	.st0{fill:#FFFFFF;stroke:#FFFFFF;}
</style>
<path class="st0" d="M30.9,35.5c0.1,0,0.2-0.1,0.3-0.2l11.2-12.5c0.2-0.2,0.2-0.4,0-0.6L31.2,9.6c-0.2-0.2-0.5-0.2-0.7,0
	s-0.2,0.4,0,0.6L41,21.9H3c-0.3,0.1-0.5,0.3-0.5,0.6C2.5,22.7,2.7,23,3,23h38L30.5,34.7c-0.2,0.2-0.2,0.5,0,0.7
	C30.6,35.5,30.8,35.5,30.9,35.5z"/>
</svg>
