<?xml version="1.0" encoding="utf-8"?>
<!-- Generator: Adobe Illustrator 23.0.2, SVG Export Plug-In . SVG Version: 6.00 Build 0)  -->
<svg version="1.1" id="Слой_1" xmlns="http://www.w3.org/2000/svg" xmlns:xlink="http://www.w3.org/1999/xlink" x="0px" y="0px"
	 viewBox="0 0 45 45" style="enable-background:new 0 0 45 45;" xml:space="preserve">
<path d="M14.1,9.5c-0.1,0-0.2,0.1-0.3,0.2L2.6,22.2c-0.2,0.2-0.2,0.4,0,0.6l11.2,12.5c0.2,0.2,0.5,0.2,0.7,0s0.2-0.4,0-0.6L4,23h38
	c0.3,0,0.5-0.2,0.5-0.5c0-0.3-0.2-0.5-0.5-0.5H4l10.5-11.7c0.2-0.2,0.2-0.5,0-0.7C14.4,9.5,14.2,9.5,14.1,9.5z"/>
</svg>
