<svg xmlns="http://www.w3.org/2000/svg" width="90" height="93" viewBox="0 0 90 93">
    <g fill="#FF6F61" fill-rule="nonzero">
        <path d="M83.59 45.913l-6.642 2.09a22.44 22.44 0 0 0-7.506-4.331l-1.51-6.8H56.538l-1.51 6.8a22.44 22.44 0 0 0-7.506 4.332l-6.642-2.091-5.698 9.868 5.137 4.712a21.97 21.97 0 0 0-.442 4.328c0 1.416.148 2.869.442 4.33l-5.137 4.711 5.698 9.868 6.642-2.092a22.419 22.419 0 0 0 7.505 4.334l1.51 6.797h11.395l1.51-6.797a22.419 22.419 0 0 0 7.506-4.334l6.643 2.092 5.696-9.868-5.136-4.711c.294-1.461.442-2.914.442-4.33s-.148-2.868-.442-4.33l5.136-4.71-5.697-9.868zm-3.596 13.304l.27 1.082c.384 1.535.58 3.056.58 4.522 0 1.466-.196 2.988-.58 4.522l-.27 1.082 4.542 4.168-2.688 4.656-5.873-1.848-.802.777a18.634 18.634 0 0 1-7.84 4.525l-1.073.306-1.337 6.01h-5.377l-1.336-6.01-1.074-.306a18.634 18.634 0 0 1-7.839-4.525l-.802-.777-5.872 1.848-2.69-4.656 4.544-4.168-.271-1.082a18.695 18.695 0 0 1-.579-4.522c0-1.466.195-2.987.579-4.522l.27-1.082-4.542-4.166 2.689-4.658 5.871 1.849.803-.777a18.647 18.647 0 0 1 7.839-4.525l1.074-.306 1.336-6.011h5.377l1.337 6.011 1.074.306c2.933.835 5.644 2.4 7.839 4.525l.802.777 5.872-1.849 2.689 4.658-4.542 4.166z"/>
        <path d="M62.235 50.614c-7.834 0-14.208 6.373-14.208 14.207 0 7.834 6.374 14.208 14.208 14.208 7.834 0 14.207-6.374 14.207-14.208 0-7.834-6.373-14.207-14.207-14.207zm0 24.665c-5.767 0-10.458-4.69-10.458-10.458 0-5.766 4.691-10.457 10.458-10.457 5.766 0 10.457 4.691 10.457 10.457 0 5.767-4.69 10.458-10.457 10.458zM6.01 43.759l6.05-1.905a20.477 20.477 0 0 0 6.678 3.856l1.376 6.191h10.593l1.376-6.191a20.477 20.477 0 0 0 6.678-3.856l6.05 1.905 5.297-9.175-4.678-4.291c.254-1.298.383-2.59.383-3.852s-.129-2.554-.383-3.852l4.678-4.29-5.297-9.176-6.05 1.905a20.496 20.496 0 0 0-6.678-3.856L30.707.981H20.114l-1.376 6.191a20.456 20.456 0 0 0-6.678 3.856L6.01 9.123.712 18.3l4.677 4.29a20.095 20.095 0 0 0-.383 3.852c0 1.26.129 2.551.383 3.852L.713 34.584l5.296 9.175zm3.265-13.27a16.725 16.725 0 0 1-.518-4.048c0-1.31.174-2.672.518-4.048l.27-1.082-4.08-3.743 2.287-3.964 5.278 1.662.802-.778a16.669 16.669 0 0 1 7.015-4.05l1.074-.306 1.201-5.401H27.7l1.201 5.4 1.074.307a16.677 16.677 0 0 1 7.015 4.05l.802.778 5.277-1.662 2.289 3.964-4.083 3.744.271 1.083c.344 1.371.518 2.733.518 4.046a16.66 16.66 0 0 1-.518 4.046l-.27 1.083 4.082 3.745-2.29 3.963-5.276-1.66-.802.776a16.671 16.671 0 0 1-7.015 4.05l-1.074.306-1.201 5.401h-4.577l-1.201-5.401-1.074-.306a16.666 16.666 0 0 1-7.015-4.05l-.802-.777-5.278 1.661-2.288-3.963 4.08-3.744-.27-1.082z"/>
        <path d="M25.41 36.46c5.525 0 10.02-4.493 10.02-10.019 0-5.525-4.495-10.02-10.02-10.02-5.525 0-10.02 4.495-10.02 10.02 0 5.526 4.495 10.02 10.02 10.02zm0-16.288a6.277 6.277 0 0 1 6.27 6.27 6.277 6.277 0 0 1-6.27 6.269 6.277 6.277 0 0 1-6.27-6.27 6.277 6.277 0 0 1 6.27-6.27z"/>
    </g>
</svg>
