<svg xmlns="http://www.w3.org/2000/svg" width="93" height="87" viewBox="0 0 93 87">
    <g fill="#FF6F61" fill-rule="nonzero">
        <path d="M18.364 22.523H55.87c.971 0 1.652-.773 1.652-1.643s-.778-1.643-1.652-1.643H18.364c-.971 0-1.652.773-1.652 1.643s.778 1.643 1.652 1.643zM18.364 37.603H55.87c.971 0 1.652-.773 1.652-1.643 0-.967-.778-1.643-1.652-1.643H18.364c-.971 0-1.652.773-1.652 1.643s.778 1.643 1.652 1.643zM18.364 52.78H55.87c.971 0 1.652-.773 1.652-1.643s-.778-1.644-1.652-1.644H18.364c-.971 0-1.652.774-1.652 1.644 0 .87.778 1.643 1.652 1.643zM43.433 64.573H18.364c-.971 0-1.652.774-1.652 1.644 0 .87.778 1.643 1.652 1.643h25.069c.971 0 1.652-.773 1.652-1.643s-.68-1.644-1.652-1.644z"/>
        <path d="M91.724 40.213l-4.47-4.446a3.708 3.708 0 0 0-5.247 0l-8.259 8.216V2.223c0-.966-.777-1.643-1.652-1.643H2.138C1.166.58.486 1.353.486 2.223v82.554c0 .966.777 1.643 1.652 1.643h69.861c.972 0 1.652-.773 1.652-1.643V63.22l17.976-17.883c1.554-1.45 1.554-3.77.097-5.124zm-36.826 27.26l4.956 4.834-.098.096-6.607 1.644 1.75-6.574zm7.288 2.514l-4.956-4.93 22.057-21.944 4.955 4.93-22.056 21.944zm8.161 13.05H3.887V3.963h66.558V47.27L52.469 65.057a3.543 3.543 0 0 0-.972 1.643l-1.749 6.573c-.291 1.16 0 2.417.875 3.287.68.677 1.555.967 2.43.967.29 0 .582 0 .874-.097l6.607-1.74c.583-.193 1.166-.483 1.652-.967l8.259-8.216v16.53h-.098zm18.948-40.02l-2.624 2.61-4.955-4.93 2.623-2.61c.097-.097.097-.097.195-.097.097 0 .194 0 .194.097l4.47 4.446c.194.097.194.387.097.484z"/>
    </g>
</svg>
