<svg xmlns="http://www.w3.org/2000/svg" width="104" height="87" viewBox="0 0 104 87">
    <g fill="#FF6F61" fill-rule="nonzero">
        <path d="M104 69.333V0H0v69.333h32.933v6.934h-5.2V83.2h-3.466v3.467h55.466V83.2h-3.466v-6.933h-5.2v-6.934H104zM3.467 65.867v-62.4h97.066v62.4H3.467zM72.8 79.733V83.2H31.2v-3.467h41.6zm-5.2-3.466H36.4v-6.934h31.2v6.934z"/>
        <path d="M97.067 6.933H6.933V62.4h90.134V6.933zm-3.467 52H10.4V10.4h83.2v48.533z"/>
        <path d="M13.867 13.867h3.467v3.467h-3.467zM13.867 19.067h3.467v3.467h-3.467zM19.067 13.867h3.467v3.467h-3.467z"/>
    </g>
</svg>
