<svg xmlns="http://www.w3.org/2000/svg" width="86" height="86" viewBox="0 0 86 86">
    <g fill="#FF6F61" fill-rule="nonzero">
        <path d="M34.096 50.636l1.268 1.267-20.751 20.751-1.267-1.267z"/>
        <path d="M15.41 79.617L6.384 70.59l23.833-23.832-2.533-2.535L1.317 70.59 15.41 84.684l26.367-26.368-2.535-2.532zM50.535 33.588l17.729-17.732-1.956-1.957 10.273-7.684 3.204 3.204-7.684 10.274-1.956-1.958-17.733 17.732L54.947 38l15.198-15.198 2.348 2.35 12.021-16.07-7.593-7.596-16.07 12.02 2.346 2.35L48 31.053zM51.715 52.772L33.22 34.278l1.267-1.267 18.496 18.494z"/>
        <path d="M80.29 57.114a16.282 16.282 0 0 0-11.588-4.8c-1.206 0-2.389.14-3.54.393l-31.879-31.88c1.158-5.279-.298-11.02-4.395-15.116A16.264 16.264 0 0 0 17.313.919c-1.681 0-3.348.255-4.95.76l-.727 2.976 4.678 4.676a5.088 5.088 0 0 1-.003 7.185 5.045 5.045 0 0 1-3.59 1.487 5.05 5.05 0 0 1-3.593-1.487L4.556 11.94l-2.988.767a16.396 16.396 0 0 0 4.143 16.18 16.284 16.284 0 0 0 11.587 4.8h.001c1.32 0 2.612-.174 3.864-.475l31.634 31.633c-1.293 5.368.132 11.263 4.315 15.446a16.26 16.26 0 0 0 11.575 4.792c1.683 0 3.348-.256 4.95-.761l.727-2.975-4.678-4.678a5.045 5.045 0 0 1-1.487-3.59c0-1.358.53-2.633 1.49-3.593A5.049 5.049 0 0 1 73.282 68c1.356 0 2.63.526 3.59 1.486l4.575 4.574 2.987-.767a16.402 16.402 0 0 0-4.143-16.18zM8.244 26.353a12.809 12.809 0 0 1-3.744-9.4l2.094 2.096a8.61 8.61 0 0 0 6.127 2.537 8.6 8.6 0 0 0 6.124-2.537c3.377-3.378 3.379-8.874.002-12.251l-2.274-2.275a12.77 12.77 0 0 1 9.781 3.721c4.992 4.993 4.992 13.115 0 18.108a12.724 12.724 0 0 1-9.055 3.752c-3.42 0-6.635-1.333-9.055-3.751zm16.616 5.486a16.42 16.42 0 0 0 4.029-2.954 16.243 16.243 0 0 0 3.078-4.306l29.451 29.45a16.429 16.429 0 0 0-4.305 3.085 16.334 16.334 0 0 0-2.951 4.028L24.859 31.84zm54.546 35.11a8.604 8.604 0 0 0-6.123-2.535c-2.315 0-4.492.9-6.127 2.537a8.608 8.608 0 0 0-2.54 6.125 8.6 8.6 0 0 0 2.538 6.125l2.274 2.276a12.732 12.732 0 0 1-9.781-3.721c-4.993-4.994-4.993-13.116 0-18.109a12.728 12.728 0 0 1 9.055-3.75c3.42 0 6.636 1.331 9.055 3.75a12.82 12.82 0 0 1 3.745 9.398l-2.096-2.095z"/>
    </g>
</svg>
