<?xml version="1.0" encoding="utf-8"?>
<!-- Generator: Adobe Illustrator 23.0.2, SVG Export Plug-In . SVG Version: 6.00 Build 0)  -->
<svg version="1.1" id="Слой_1" xmlns="http://www.w3.org/2000/svg" xmlns:xlink="http://www.w3.org/1999/xlink" x="0px" y="0px"
	 viewBox="0 0 45 45" style="enable-background:new 0 0 45 45;" xml:space="preserve">
<style type="text/css">
	.st0{fill:#FFFFFF;}
</style>
<title>Shape</title>
<desc>Created with Sketch.</desc>
<g id="Page-1">
	<g id="Smart-home_Main" transform="translate(-96.000000, -1533.000000)">
		<g id="elements-new" transform="translate(-8.000000, 1159.000000)">
			<g id="left" transform="translate(67.000000, 213.190349)">
				<g id="climate-icon-active" transform="translate(0.452830, 135.473672)">
					<path id="Shape" class="st0" d="M45.8,38.9c0.6,0.3,0.9,0.9,0.9,1.6c0,1-0.8,1.9-1.9,1.9s-1.9-0.8-1.9-1.9
						c0-0.7,0.4-1.3,0.9-1.6v-4.1c0-0.5,0.4-0.9,0.9-0.9s0.9,0.4,0.9,0.9v4.1H45.8z M40.1,48.8c0-0.5,0.4-0.9,0.9-0.9
						s0.9,0.4,0.9,0.9c0,9.2,7.6,16.7,17,16.7s17-7.5,17-16.7s-7.6-16.7-17-16.7c-2.3,0-4.5,0.4-6.5,1.3c-0.5,0.2-1,0-1.2-0.5
						s0-1,0.5-1.2c2.3-0.9,4.7-1.4,7.3-1.4c10.4,0,18.9,8.3,18.9,18.5S69.4,67.3,59,67.3S40.1,59.1,40.1,48.8z M59,57.2
						c-4.7,0-8.5-3.7-8.5-8.3s3.8-8.3,8.5-8.3s8.5,3.7,8.5,8.3S63.7,57.2,59,57.2z M67.5,42.3c-1,0-1.9-0.8-1.9-1.9
						c0-1,0.8-1.9,1.9-1.9c1,0,1.9,0.8,1.9,1.9C69.4,41.5,68.5,42.3,67.5,42.3z M59,55.3c3.7,0,6.6-2.9,6.6-6.5s-3-6.5-6.6-6.5
						s-6.6,2.9-6.6,6.5S55.3,55.3,59,55.3z M41,32.1c0-2,1.7-3.7,3.8-3.7s3.8,1.7,3.8,3.7v5.6c0.6,0.8,0.9,1.8,0.9,2.8
						c0,2.6-2.1,4.6-4.7,4.6s-4.7-2.1-4.7-4.6c0-1,0.3-2,0.9-2.8V32.1z M42.7,38.6c-0.5,0.5-0.7,1.2-0.7,1.8c0,1.5,1.3,2.8,2.8,2.8
						s2.8-1.2,2.8-2.8c0-0.7-0.3-1.3-0.7-1.8l-0.2-0.3v-6.2c0-1-0.8-1.9-1.9-1.9s-1.9,0.8-1.9,1.9v6.2L42.7,38.6z"/>
				</g>
			</g>
		</g>
	</g>
</g>
</svg>
