<?xml version="1.0" encoding="utf-8"?>
<!-- Generator: Adobe Illustrator 23.0.2, SVG Export Plug-In . SVG Version: 6.00 Build 0)  -->
<svg version="1.1" id="Слой_1" xmlns="http://www.w3.org/2000/svg" xmlns:xlink="http://www.w3.org/1999/xlink" x="0px" y="0px"
	 viewBox="0 0 45 45" style="enable-background:new 0 0 45 45;" xml:space="preserve">
<title>icon</title>
<desc>Created with Sketch.</desc>
<g id="Page-1_2_">
	<g id="Smart-home_Main_2_" transform="translate(-100.000000, -1389.000000)">
		<g id="elements-new_2_" transform="translate(-8.000000, 1159.000000)">
			<g id="left_2_" transform="translate(67.000000, 213.190349)">
				<g id="light-icon-active_1_" transform="translate(18.000000, 0.000000)">
					<g id="icon_1_" transform="translate(23.698113, 17.734827)">
						<path id="Shape_2_" d="M27.9,18.4c-0.2-0.2-0.5-0.2-0.7,0l-5.3,5.5l-5.5-5.4c-0.2-0.2-0.5-0.2-0.7,0s-0.2,0.5,0,0.7l5.6,5.6
							v7.5c0,0.3,0.3,0.5,0.6,0.5c0.3,0,0.6-0.2,0.6-0.5v-7.5l5.5-5.7C28.2,18.9,28.1,18.6,27.9,18.4z"/>
						<g>
							<path d="M21.8,42.3c-2.1,0-3.9-1.6-4.3-3.7c-1.5-1.1-2.4-2.7-2.4-4.6v-2.5c0-0.9-0.1-1.4-0.4-1.9c-1.5-2.4-6.4-10.7-6.4-15.1
								C8.3,7,14.4,0.9,21.8,0.9S35.3,7,35.3,14.5c0,4-4,11.2-6.4,15.1c-0.4,0.7-0.6,1.3-0.6,1.9V34c0,1.9-0.8,3.5-2.3,4.6
								C25.7,40.7,23.9,42.3,21.8,42.3z M19.2,38.7c0.4,1.5,1.1,1.9,2.5,1.9c1.2,0,2.1-0.4,2.4-1.9l0,0C22.5,39.6,21,39.5,19.2,38.7
								z M21.8,3.4c-6,0-11,5-11,11.1c0,3.8,5,12.2,6,13.8c0.6,0.8,0.8,1.9,0.8,3.2V34c0,2.4,2.2,3.3,4,3.3c1.8,0,4-0.9,4-3.3v-2.5
								c0-1.1,0.4-2.3,1-3.2c1.4-2.3,6.1-10.2,6.1-13.8C32.7,8.4,27.8,3.4,21.8,3.4z"/>
						</g>
					</g>
				</g>
			</g>
		</g>
	</g>
</g>
</svg>
