<?xml version="1.0" encoding="utf-8"?>
<!-- Generator: Adobe Illustrator 23.0.2, SVG Export Plug-In . SVG Version: 6.00 Build 0)  -->
<svg version="1.1" id="Слой_1" xmlns="http://www.w3.org/2000/svg" xmlns:xlink="http://www.w3.org/1999/xlink" x="0px" y="0px"
	 viewBox="0 0 45 45" style="enable-background:new 0 0 45 45;" xml:space="preserve">
<title>icon</title>
<desc>Created with Sketch.</desc>
<g id="Page-1">
	<g id="Smart-home_Main" transform="translate(-93.000000, -2108.000000)">
		<g id="elements-new" transform="translate(-8.000000, 1159.000000)">
			<g id="left" transform="translate(67.000000, 213.190349)">
				<g id="mechanism-icon" transform="translate(18.452830, 717.764893)">
					<g id="icon" transform="translate(15.981132, 18.735721)">
						<path id="Shape" d="M34.6,2.4c-0.9,0-1.9,0.2-2.7,0.5h0L6,14.2c0,0,0,0,0,0c-2,0.8-3.5,2.7-3.5,5c0,1.4,0.5,2.6,1.3,3.5
							c0,0,0,0.1,0.1,0.1l13.8,14.4c0.2,0.2,0.3,0.4,0.5,0.6l0.1,0.1l0.1,0.1c2.1,2,4.9,3.1,8,3.1c5.7,0,10.5-4,11.5-9.4v0l0-0.1
							c0-0.2,0.1-0.3,0.1-0.5l3.4-20.5c0.1-0.5,0.2-0.9,0.2-1.4C41.7,5.5,38.5,2.4,34.6,2.4z M34.6,3.9c3,0,5.5,2.5,5.5,5.4
							s-2.5,5.4-5.5,5.4s-5.5-2.5-5.5-5.4S31.6,3.9,34.6,3.9z M28.3,6.1c-0.5,1-0.8,2.1-0.8,3.2c0,3.9,3.2,7,7.1,7
							c1.8,0,3.5-0.7,4.7-1.8l-1.8,10.9c-1.7-4.4-6-7.5-11-7.5c-6.5,0-11.8,5.2-11.8,11.7c0,0.9,0.1,1.9,0.3,2.7l-7.2-7.6h0.2
							c3,0,5.5-2.5,5.5-5.4c0-2.3-1.5-4.3-3.5-5.1L28.3,6.1z M34.6,7c-1.3,0-2.4,1.1-2.4,2.3s1.1,2.3,2.4,2.3S37,10.6,37,9.4
							S35.9,7,34.6,7z M34.6,8.6c0.4,0,0.8,0.3,0.8,0.8c0,0.4-0.3,0.8-0.8,0.8s-0.8-0.3-0.8-0.8C33.8,8.9,34.2,8.6,34.6,8.6z
							 M7.9,15.4c2.2,0,3.9,1.7,3.9,3.9s-1.8,3.9-3.9,3.9c-1.1,0-2-0.4-2.8-1.1l0,0C4.5,21.3,4,20.4,4,19.3
							C4,17.2,5.8,15.4,7.9,15.4z M7.9,18.1c-0.7,0-1.3,0.6-1.3,1.2s0.6,1.2,1.3,1.2s1.3-0.6,1.3-1.2S8.6,18.1,7.9,18.1z M7.9,19
							c0.2,0,0.3,0.1,0.3,0.3s-0.1,0.3-0.3,0.3s-0.3-0.1-0.3-0.3S7.8,19,7.9,19z M26.4,19.5c5.6,0,10.2,4.5,10.2,10.1
							c0,0.5,0,1-0.1,1.4l-0.1,0.5c-0.8,4.7-5,8.2-10,8.2c-2.8,0-5.3-1.1-7.1-2.9l-0.5-0.6c-1.6-1.8-2.6-4.1-2.6-6.7
							C16.2,24,20.8,19.5,26.4,19.5z M26.5,22.6c-0.4,0-0.8,0.3-0.8,0.8v2.4c-0.5,0.1-1,0.3-1.4,0.6l-1.7-1.7
							c-0.3-0.3-0.8-0.3-1.1,0c-0.3,0.3-0.3,0.8,0,1.1l1.7,1.7c-0.3,0.4-0.5,0.9-0.6,1.4h-2.4c-0.4,0-0.8,0.3-0.8,0.8
							s0.3,0.8,0.8,0.8h2.4c0.1,0.5,0.3,1,0.6,1.4l-1.7,1.7c-0.3,0.3-0.3,0.8,0,1.1c0.2,0.2,0.3,0.2,0.6,0.2s0.4-0.1,0.6-0.2
							l1.7-1.7c0.4,0.3,0.9,0.5,1.4,0.6v2.4c0,0.4,0.3,0.8,0.8,0.8c0.4,0,0.8-0.3,0.8-0.8v-2.4c0.5-0.1,1-0.3,1.4-0.6l1.7,1.7
							c0.2,0.2,0.3,0.2,0.6,0.2c0.2,0,0.4-0.1,0.6-0.2c0.3-0.3,0.3-0.8,0-1.1l-1.7-1.7c0.3-0.4,0.5-0.9,0.6-1.4h2.4
							c0.4,0,0.8-0.3,0.8-0.8s-0.3-0.8-0.8-0.8h-2.4c-0.1-0.5-0.3-1-0.6-1.4l1.7-1.7c0.3-0.3,0.3-0.8,0-1.1c-0.3-0.3-0.8-0.3-1.1,0
							l-1.7,1.7c-0.4-0.3-0.9-0.5-1.4-0.6v-2.4C27.2,22.9,26.9,22.6,26.5,22.6z M26.5,27.3c1.3,0,2.4,1.1,2.4,2.3s-1.1,2.3-2.4,2.3
							c-1.3,0-2.4-1.1-2.4-2.3S25.2,27.3,26.5,27.3z"/>
					</g>
				</g>
			</g>
		</g>
	</g>
</g>
</svg>
