<?xml version="1.0" encoding="utf-8"?>
<!-- Generator: Adobe Illustrator 23.0.2, SVG Export Plug-In . SVG Version: 6.00 Build 0)  -->
<svg version="1.1" id="Слой_1" xmlns="http://www.w3.org/2000/svg" xmlns:xlink="http://www.w3.org/1999/xlink" x="0px" y="0px"
	 viewBox="0 0 45 45" style="enable-background:new 0 0 45 45;" xml:space="preserve">
<style type="text/css">
	.st0{fill:#FFFFFF;stroke:#FFFFFF;stroke-width:0.72;}
	.st1{fill:#FFFFFF;}
</style>
<g id="Page-1_9_">
	<g id="Smart-home_Main_9_" transform="translate(-95.000000, -1827.000000)">
		<g id="elements-new_9_" transform="translate(-8.000000, 1159.000000)">
			<g id="left_9_" transform="translate(67.000000, 213.190349)">
				<g id="multimedia-icon_2_" transform="translate(18.452830, 432.564513)">
					<g id="icon_8_" transform="translate(18.886792, 23.059348)">
						<path id="Shape_9_" class="st0" d="M37.8,4.1H4.5C3.3,4.1,2.3,5,2.3,6.3v22.1c0,1.3,1,2.2,2.2,2.2h33.4c1.3,0,2.2-1,2.2-2.2
							V6.3C40,5,39,4.1,37.8,4.1z M38.5,28.3c0,0.3-0.3,0.6-0.6,0.6H4.5c-0.3,0-0.6-0.3-0.6-0.6v-22c0-0.3,0.3-0.6,0.6-0.6h33.4
							c0.3,0,0.6,0.3,0.6,0.6V28.3z"/>
						<path class="st1" d="M39.3,35.3h-26c-0.4-1.3-1.6-2.4-3.1-2.4s-2.7,1-3.1,2.4h-4c-0.5,0-0.8,0.3-0.8,0.8
							c0,0.5,0.3,0.8,0.8,0.8h4c0.3,1.4,1.6,2.4,3.1,2.4s2.8-1,3.1-2.4h26c0.5,0,0.8-0.3,0.8-0.8C40,35.6,39.7,35.3,39.3,35.3z
							 M10.1,37.7c-0.9,0-1.6-0.7-1.6-1.6s0.7-1.6,1.6-1.6c0.9,0,1.5,0.6,1.6,1.4v0.1c0,0.1,0,0.1,0,0.2
							C11.7,37.1,11,37.7,10.1,37.7z"/>
						<path class="st1" d="M24.9,15.1l-4.7-3c-1.7-1-3.9,0.2-3.9,2.1v6c0,2,2.2,3.1,3.9,2.1l4.7-3c0.7-0.5,1.2-1.3,1.2-2.1
							C26,16.4,25.6,15.6,24.9,15.1z M24,18.1l-4.7,3c-0.6,0.4-1.4-0.1-1.4-0.8v-6c0-0.7,0.8-1.2,1.4-0.8l4.7,3
							c0.2,0.2,0.4,0.5,0.4,0.8C24.4,17.6,24.3,17.9,24,18.1z"/>
					</g>
				</g>
			</g>
		</g>
	</g>
</g>
</svg>
