<?xml version="1.0" encoding="utf-8"?>
<!-- Generator: Adobe Illustrator 23.0.2, SVG Export Plug-In . SVG Version: 6.00 Build 0)  -->
<svg version="1.1" id="Слой_1" xmlns="http://www.w3.org/2000/svg" xmlns:xlink="http://www.w3.org/1999/xlink" x="0px" y="0px"
	 viewBox="0 0 45 45" style="enable-background:new 0 0 45 45;" xml:space="preserve">
<style type="text/css">
	.st0{fill:#FFFFFF;}
</style>
<title>icon</title>
<desc>Created with Sketch.</desc>
<g id="Page-1_14_">
	<g id="Smart-home_Main_14_" transform="translate(-100.000000, -1675.000000)">
		<g id="elements-new_14_" transform="translate(-8.000000, 1159.000000)">
			<g id="left_14_" transform="translate(67.000000, 213.190349)">
				<g id="security-icon_1_" transform="translate(18.452830, 288.523114)">
					<g id="icon_12_" transform="translate(23.000000, 15.000000)">
						<path id="Shape_14_" class="st0" d="M9,16h4.3V8.3c0-4.8,3.9-8.8,8.8-8.8c4.8,0,8.8,4,8.8,8.8V16h4.2c0.6,0,1,0.5,1,1.1v13
							c0,7.7-6.3,14-14.1,14c-7.6,0-14-6.3-14-14V17C8,16.5,8.5,16,9,16z M15.1,16h13.9V8.3c0-3.8-3.1-7-7-7s-7,3.1-7,7V16z
							 M9.9,21.2h16.8c1.3,0,1.3,2,0,2H9.9v7c0,6.7,5.5,12.1,12.2,12.1s12.1-5.4,12.1-12.1V18H9.9V21.2z"/>
						<path class="st0" d="M22.1,25.7c2,0,3.6,1.7,3.6,3.6c0,2.1-1.7,3.7-3.6,3.7c-2.1,0-3.7-1.7-3.7-3.7
							C18.4,27.4,20,25.7,22.1,25.7z M22.1,27.7c-1,0-1.8,0.8-1.8,1.7c0,1,0.8,1.8,1.8,1.8c0.9,0,1.7-0.8,1.7-1.8
							C23.8,28.5,23,27.7,22.1,27.7z"/>
						<path class="st0" d="M21.1,32.3c0-0.6,0.4-1,1-1c0.5,0,1,0.4,1,1v2.3c0,1.4-2,1.4-2,0V32.3z"/>
						<path class="st0" d="M29.7,23.2c-1.3,0-1.3-2,0-2h1.9c1.3,0,1.3,2,0,2H29.7z"/>
					</g>
				</g>
			</g>
		</g>
	</g>
</g>
</svg>
